<?xml version="1.0" encoding="UTF-8"?>
<svg width="700pt" height="700pt" version="1.1" viewBox="0 0 700 700" xmlns="http://www.w3.org/2000/svg" xmlns:xlink="http://www.w3.org/1999/xlink">
 <g>
  <path d="m555.62 74.375c-1.1367 0-2.1875-0.4375-3.0625-1.2266-1.0508-1.0508-1.4883-2.5391-1.1367-3.9375l9.2734-45.324c0.35156-1.5742 1.4883-2.8008 2.9766-3.2383s3.1484 0 4.2891 1.0508l6.4766 6.4766 26.863-26.863c1.6641-1.6641 4.375-1.6641 6.125 0l17.062 17.062c1.6641 1.6641 1.6641 4.375 0 6.125l-26.867 26.773 6.4766 6.4766c1.1367 1.1367 1.5742 2.8008 1.0508 4.2891-0.4375 1.4883-1.75 2.625-3.2383 2.9766l-45.414 9.2734c-0.26172 0-0.52344 0.085938-0.875 0.085938zm11.898-40.949-6.3867 31.062 31.062-6.3867-3.8516-3.8516c-1.6641-1.6641-1.6641-4.375 0-6.125l26.863-26.863-10.938-10.938-26.773 26.949c-1.6641 1.6641-4.375 1.6641-6.125 0z"/>
  <path d="m95.637 560c-1.1367 0-2.2734-0.4375-3.0625-1.2266l-17.062-17.062c-1.6641-1.6641-1.6641-4.375 0-6.125l26.863-26.863-6.3867-6.4727c-1.1367-1.1367-1.5742-2.8008-1.0508-4.2891 0.4375-1.4883 1.75-2.625 3.2383-2.9766l45.324-9.2734c1.3984-0.26172 2.8867 0.17578 3.9375 1.1367 1.0508 1.0508 1.4883 2.4492 1.1367 3.9375l-9.2734 45.324c-0.35156 1.5742-1.4883 2.8008-2.9766 3.2383s-3.1484 0-4.2891-1.0508l-6.4766-6.4766-26.863 26.863c-0.87109 0.87891-1.9219 1.3164-3.0586 1.3164zm-10.938-21.352 10.938 10.938 26.863-26.859c1.5742-1.5742 4.4609-1.5742 6.125 0l3.8516 3.8516 6.3867-31.062-31.062 6.3867 3.8516 3.8516c1.6641 1.6641 1.6641 4.375 0 6.125z"/>
  <path d="m144.38 74.375c-0.26172 0-0.61328 0-0.875-0.085938l-45.324-9.2773c-1.5742-0.34766-2.8008-1.4883-3.3242-2.9727-0.4375-1.4883 0-3.1484 1.0508-4.2891l6.4727-6.4766-26.863-26.859c-1.6641-1.6641-1.6641-4.375 0-6.125l17.062-17.062c1.6641-1.6641 4.375-1.6641 6.125 0l26.863 26.863 6.4766-6.4766c1.0469-1.0508 2.7109-1.4023 4.2852-0.96484 1.4883 0.4375 2.625 1.75 2.9766 3.2383l9.2734 45.324c0.26172 1.3984-0.17578 2.8867-1.1367 3.9375-0.875 0.78906-1.9258 1.2266-3.0625 1.2266zm-36.664-16.188 31.062 6.3867-6.2969-31.148-3.8516 3.8477c-1.6641 1.6641-4.375 1.6641-6.125 0l-26.863-26.859-10.938 10.938 26.863 26.863c1.6641 1.6641 1.6641 4.375 0 6.125z"/>
  <path d="m604.36 560c-1.1367 0-2.1875-0.4375-3.0625-1.2266l-26.863-26.863-6.4766 6.4766c-1.1367 1.1367-2.7109 1.5742-4.2891 1.0508-1.4883-0.4375-2.625-1.75-2.9766-3.2383l-9.2734-45.324c-0.26172-1.3984 0.17578-2.8867 1.1367-3.9375 1.0508-1.0508 2.4492-1.4883 3.9375-1.1367l45.324 9.2734c1.5742 0.35156 2.8008 1.4883 3.2383 2.9766s0 3.1484-1.0508 4.2891l-6.4766 6.4766 26.863 26.863c1.6641 1.6641 1.6641 4.375 0 6.125l-17.062 17.062c-0.78125 0.69531-1.832 1.1328-2.9688 1.1328zm-29.926-38.586c1.1367 0 2.2734 0.4375 3.0625 1.2266l26.863 26.863 10.938-10.938-26.863-26.863c-1.6641-1.6641-1.6641-4.375 0-6.125l3.8516-3.8516-31.062-6.3867 6.3867 31.062 3.8516-3.8516c0.69922-0.61328 1.8359-1.1367 2.9727-1.1367z"/>
  <path d="m168.61 265.74h-0.4375c-2.3633-0.26172-4.1133-2.3633-3.8516-4.7266 8.8359-87.676 79.012-157.76 166.69-166.6 2.4492-0.17578 4.4609 1.4883 4.7266 3.8516 0.26172 2.3633-1.4883 4.4609-3.8516 4.7266-83.648 8.4883-150.59 75.336-158.99 158.9-0.17188 2.1875-2.0977 3.8516-4.2852 3.8516z"/>
  <path d="m368.55 465.68c-2.1875 0-4.0234-1.6641-4.2891-3.8516-0.26172-2.3633 1.4883-4.4609 3.8516-4.7266 83.648-8.3984 150.5-75.25 158.99-158.9 0.26172-2.3633 2.3633-4.0234 4.7266-3.8516 2.3633 0.26172 4.1133 2.3633 3.8516 4.7266-8.8359 87.762-79.012 157.85-166.69 166.6h-0.44141z"/>
  <path d="m331.45 465.68h-0.4375c-87.762-8.9258-157.76-79.012-166.69-166.69-0.26172-2.3633 1.4883-4.4609 3.8516-4.7266 2.4492-0.17578 4.4609 1.4883 4.7266 3.8516 8.4883 83.648 75.25 150.5 158.9 158.9 2.3633 0.26172 4.1133 2.3633 3.8516 4.7266-0.17578 2.2734-2.0156 3.9375-4.2031 3.9375z"/>
  <path d="m531.39 265.74c-2.1875 0-4.0234-1.6641-4.2891-3.8516-8.4883-83.648-75.25-150.5-158.9-158.9-2.3633-0.26172-4.1133-2.3633-3.8516-4.7266 0.26172-2.3633 2.3633-4.0234 4.7266-3.8516 87.676 8.8359 157.76 78.926 166.6 166.6 0.26172 2.3633-1.4883 4.4609-3.8516 4.7266h-0.4375z"/>
  <path d="m109.9 265.74h-0.35156c-2.3633-0.17578-4.1133-2.2734-3.9375-4.6367 9.1914-119.44 106.14-216.39 225.58-225.49 2.2734-0.17578 4.4609 1.5742 4.6367 3.9375s-1.5742 4.4609-3.9375 4.6367c-115.32 8.8359-208.86 102.38-217.7 217.61-0.17578 2.1875-2.0117 3.9375-4.2891 3.9375z"/>
  <path d="m368.55 524.48c-2.1875 0-4.1133-1.75-4.2891-3.9375-0.17578-2.3633 1.5742-4.4609 3.9375-4.6367 115.24-8.75 208.77-102.29 217.61-217.61 0.17578-2.3633 2.2734-4.1133 4.6367-3.9375 2.3633 0.17578 4.1133 2.2734 3.9375 4.6367-9.1875 119.44-106.14 216.39-225.57 225.4-0.085938 0-0.17578 0.089843-0.26172 0.089843z"/>
  <path d="m331.45 524.48h-0.35156c-119.43-9.1875-216.3-106.14-225.48-225.58-0.17578-2.3633 1.5742-4.4609 3.9375-4.6367 2.2734-0.17578 4.4609 1.5742 4.6367 3.9375 8.8359 115.24 102.38 208.77 217.52 217.61 2.3633 0.17578 4.1133 2.2734 3.9375 4.6367-0.085938 2.2773-2.0117 4.0273-4.1992 4.0273z"/>
  <path d="m590.1 265.74c-2.1875 0-4.1133-1.75-4.2891-3.9375-8.8359-115.24-102.38-208.78-217.52-217.61-2.3633-0.17578-4.1133-2.2734-3.9375-4.6367 0.17578-2.3633 2.2734-4.1992 4.6367-3.9375 119.35 9.1875 216.3 106.14 225.49 225.57 0.17578 2.3633-1.5742 4.4609-3.9375 4.6367-0.26562-0.085938-0.35156-0.085938-0.4375-0.085938z"/>
  <path d="m368.55 133.88h-37.102c-2.3633 0-4.2891-1.9258-4.2891-4.2891l0.003906-122.32c0-2.3633 1.9258-4.2891 4.2891-4.2891h37.102c2.3633 0 4.2891 1.9258 4.2891 4.2891v122.32c-0.007812 2.3633-1.9297 4.2891-4.293 4.2891zm-32.812-8.5742h28.523v-113.66h-28.523z"/>
  <path d="m199.59 302.84h-122.32c-2.3633 0-4.2891-1.9258-4.2891-4.2891v-37.102c0-2.3633 1.9258-4.2891 4.2891-4.2891h122.32c2.3633 0 4.2891 1.9258 4.2891 4.2891v37.102c0 2.3672-1.9258 4.2891-4.2891 4.2891zm-117.95-8.5742h113.66v-28.523h-113.66z"/>
  <path d="m368.55 557.02h-37.102c-2.3633 0-4.2891-1.9258-4.2891-4.2891l0.003906-122.32c0-2.3633 1.9258-4.2891 4.2891-4.2891h37.102c2.3633 0 4.2891 1.9258 4.2891 4.2891v122.32c-0.007812 2.3633-1.9297 4.2852-4.293 4.2852zm-32.812-8.6602h28.523v-113.66h-28.523z"/>
  <path d="m622.74 302.84h-122.32c-2.3633 0-4.2891-1.9258-4.2891-4.2891v-37.102c0-2.3633 1.9258-4.2891 4.2891-4.2891h122.32c2.3633 0 4.2891 1.9258 4.2891 4.2891v37.102c-0.003906 2.3672-1.9258 4.2891-4.2891 4.2891zm-118.04-8.5742h113.66v-28.523h-113.66z"/>
  <path d="m350 406.18c-69.562 0-126.18-56.613-126.18-126.18s56.613-126.18 126.18-126.18 126.18 56.613 126.18 126.18-56.613 126.18-126.18 126.18zm0-243.69c-64.836 0-117.51 52.762-117.51 117.51s52.676 117.51 117.51 117.51 117.51-52.676 117.51-117.51-52.676-117.51-117.51-117.51z"/>
  <path d="m402.59 358.84c-0.69922 0-1.3984-0.17578-2.0117-0.52344l-50.574-26.602-50.574 26.602c-1.4883 0.78906-3.2383 0.61328-4.5508-0.35156-1.3125-0.96094-2.0117-2.625-1.75-4.1992l9.625-56.352-40.949-39.898c-1.1367-1.1367-1.5742-2.8867-1.0508-4.375 0.52344-1.5742 1.8359-2.7109 3.5-2.8867l56.523-8.2266 25.289-51.273c1.4883-2.9766 6.3008-2.9766 7.6992 0l25.289 51.273 56.523 8.2266c1.6641 0.26172 2.9766 1.3984 3.5 2.8867 0.52344 1.5742 0.085937 3.2383-1.0508 4.375l-40.949 39.898 9.625 56.352c0.26172 1.5742-0.35156 3.2383-1.75 4.1992-0.61328 0.52734-1.4883 0.875-2.3633 0.875zm-52.586-36.312c0.69922 0 1.3984 0.17578 2.0117 0.52344l44.887 23.625-8.5742-49.961c-0.26172-1.3984 0.26172-2.8008 1.2266-3.8516l36.312-35.352-50.137-7.2617c-1.3984-0.17578-2.625-1.0508-3.2383-2.3633l-22.488-45.496-22.398 45.414c-0.61328 1.3125-1.8359 2.1875-3.2383 2.3633l-50.137 7.2617 36.312 35.352c1.0508 0.96094 1.4883 2.4492 1.2266 3.8516l-8.5742 49.961 44.887-23.625c0.52344-0.26562 1.2227-0.44141 1.9219-0.44141z"/>
 </g>
</svg>
