<?xml version="1.0" encoding="UTF-8"?>
<svg width="700pt" height="700pt" version="1.1" viewBox="0 0 700 700" xmlns="http://www.w3.org/2000/svg" xmlns:xlink="http://www.w3.org/1999/xlink">
 <g>
  <path d="m561.57 245c2.7734 7.8477 9.1055 13.914 17.066 16.352 7.9609 2.4336 16.602 0.95313 23.293-3.9961 6.6914-4.9531 10.641-12.781 10.641-21.105s-3.9492-16.152-10.641-21.105c-6.6914-4.9492-15.332-6.4297-23.293-3.9961-7.9609 2.4375-14.293 8.5039-17.066 16.352h-19.074v-52.5h19.074c2.7734 7.8477 9.1055 13.914 17.066 16.352 7.9609 2.4336 16.602 0.95313 23.293-3.9961 6.6914-4.9531 10.641-12.781 10.641-21.105s-3.9492-16.152-10.641-21.105c-6.6914-4.9492-15.332-6.4297-23.293-3.9961-7.9609 2.4375-14.293 8.5039-17.066 16.352h-19.074v-43.75c0-2.3203-0.92188-4.5469-2.5625-6.1875s-3.8672-2.5625-6.1875-2.5625h-52.5v-11.199l20.301-6.7383c3.5391-1.2344 5.9219-4.5625 5.9492-8.3125v-10.324c7.8477-2.7734 13.914-9.1055 16.352-17.066 2.4336-7.9609 0.95313-16.602-3.9961-23.293-4.9531-6.6914-12.781-10.641-21.105-10.641s-16.152 3.9492-21.105 10.641c-4.9492 6.6914-6.4297 15.332-3.9961 23.293 2.4375 7.9609 8.5039 14.293 16.352 17.066v4.0234l-20.301 6.7383c-3.5391 1.2344-5.9219 4.5625-5.9492 8.3125v17.5h-43.75v-36.574c7.8477-2.7734 13.914-9.1055 16.352-17.066 2.4336-7.9609 0.95313-16.602-3.9961-23.293-4.9531-6.6914-12.781-10.641-21.105-10.641s-16.152 3.9492-21.105 10.641c-4.9492 6.6914-6.4297 15.332-3.9961 23.293 2.4375 7.9609 8.5039 14.293 16.352 17.066v36.574h-43.75v-17.5c-0.027344-3.75-2.4102-7.0781-5.9492-8.3125l-20.301-6.7383v-4.0234c7.8477-2.7734 13.914-9.1055 16.352-17.066 2.4336-7.9609 0.95313-16.602-3.9961-23.293-4.9531-6.6914-12.781-10.641-21.105-10.641s-16.152 3.9492-21.105 10.641c-4.9492 6.6914-6.4297 15.332-3.9961 23.293 2.4375 7.9609 8.5039 14.293 16.352 17.066v10.324c0.027344 3.75 2.4102 7.0781 5.9492 8.3125l20.301 6.7383v11.199h-52.5c-4.832 0-8.75 3.918-8.75 8.75v87.5h-8.75v-131.25c0-2.3203-0.92188-4.5469-2.5625-6.1875s-3.8672-2.5625-6.1875-2.5625c-32.477 0.035156-63.617 12.953-86.582 35.918-22.965 22.965-35.883 54.105-35.918 86.582v57.664l-49.961 49.875c-1.6133 1.668-2.5234 3.8906-2.5391 6.2109v26.25c0 2.3203 0.92188 4.5469 2.5625 6.1875s3.8672 2.5625 6.1875 2.5625h43.75v140c0 2.3203 0.92188 4.5469 2.5625 6.1875s3.8672 2.5625 6.1875 2.5625h52.5c1.8906-0.019531 3.7266-0.62891 5.25-1.75l21-15.664v69.914c0 2.3203 0.92188 4.5469 2.5625 6.1875s3.8672 2.5625 6.1875 2.5625h43.75c2.75-0.019531 5.3359-1.3125 7-3.5l78.75-105c1.1445-1.5078 1.7617-3.3555 1.75-5.25v-61.25h26.25v166.25c0 2.3203 0.92188 4.5469 2.5625 6.1875s3.8672 2.5625 6.1875 2.5625h210v-17.5h-201.25v-157.5h17.5v131.25c0 2.3203 0.92188 4.5469 2.5625 6.1875s3.8672 2.5625 6.1875 2.5625h131.25v-17.5h-122.5v-122.5h17.5v96.25c0 2.3203 0.92188 4.5469 2.5625 6.1875s3.8672 2.5625 6.1875 2.5625h140v-17.5h-131.25v-87.5h17.5v61.25c0 2.3203 0.92188 4.5469 2.5625 6.1875s3.8672 2.5625 6.1875 2.5625h61.25v-17.5h-52.5v-52.5h17.5c2.3203 0 4.5469-0.92188 6.1875-2.5625s2.5625-3.8672 2.5625-6.1875v-43.75h19.074c2.7734 7.8477 9.1055 13.914 17.066 16.352 7.9609 2.4336 16.602 0.95313 23.293-3.9961 6.6914-4.9531 10.641-12.781 10.641-21.105s-3.9492-16.152-10.641-21.105c-6.6914-4.9492-15.332-6.4297-23.293-3.9961-7.9609 2.4375-14.293 8.5039-17.066 16.352h-19.074v-52.5zm24.676-17.5c3.5391 0 6.7305 2.1328 8.082 5.4023 1.3555 3.2695 0.60938 7.0312-1.8945 9.5352s-6.2656 3.25-9.5352 1.8945c-3.2695-1.3516-5.4023-4.543-5.4023-8.082 0-4.832 3.918-8.75 8.75-8.75zm0-70c3.5391 0 6.7305 2.1328 8.082 5.4023 1.3555 3.2695 0.60938 7.0312-1.8945 9.5352s-6.2656 3.25-9.5352 1.8945c-3.2695-1.3516-5.4023-4.543-5.4023-8.082 0-4.832 3.918-8.75 8.75-8.75zm-87.5-122.5c3.5391 0 6.7305 2.1328 8.082 5.4023 1.3555 3.2695 0.60938 7.0312-1.8945 9.5352s-6.2656 3.25-9.5352 1.8945c-3.2695-1.3516-5.4023-4.543-5.4023-8.082 0-4.832 3.918-8.75 8.75-8.75zm-175 17.5c-3.5391 0-6.7305-2.1328-8.082-5.4023-1.3555-3.2695-0.60938-7.0312 1.8945-9.5352s6.2656-3.25 9.5352-1.8945c3.2695 1.3516 5.4023 4.543 5.4023 8.082 0 2.3203-0.92188 4.5469-2.5625 6.1875s-3.8672 2.5625-6.1875 2.5625zm87.5-17.5c3.5391 0 6.7305 2.1328 8.082 5.4023 1.3555 3.2695 0.60938 7.0312-1.8945 9.5352s-6.2656 3.25-9.5352 1.8945c-3.2695-1.3516-5.4023-4.543-5.4023-8.082 0-4.832 3.918-8.75 8.75-8.75zm-61.25 390.86-74.375 99.137h-30.625v-74.113l49-36.488c2.2031-1.6523 3.5-4.2461 3.5-7v-39.898h52.5zm26.25-75.863h-87.5c-4.832 0-8.75 3.918-8.75 8.75v44.273l-81.637 60.727h-40.863v-140c0-2.3203-0.92188-4.5469-2.5625-6.1875s-3.8672-2.5625-6.1875-2.5625h-43.75v-13.914l49.961-49.875c1.6133-1.668 2.5234-3.8906 2.5391-6.2109v-61.25c0.03125-26.324 9.9375-51.68 27.758-71.059 17.82-19.375 42.262-31.363 68.492-33.59v130.9c0 2.3203 0.92188 4.5469 2.5625 6.1875s3.8672 2.5625 6.1875 2.5625h113.75zm8.75-148.75h-52.5v-43.75h157.5v157.5h-96.25v-105c0-2.3203-0.92188-4.5469-2.5625-6.1875s-3.8672-2.5625-6.1875-2.5625zm140 148.75h-131.25v-17.5h105c2.3203 0 4.5469-0.92188 6.1875-2.5625s2.5625-3.8672 2.5625-6.1875v-175c0-2.3203-0.92188-4.5469-2.5625-6.1875s-3.8672-2.5625-6.1875-2.5625h-175c-4.832 0-8.75 3.918-8.75 8.75v52.5h-17.5v-78.75h227.5zm61.25-52.5c3.5391 0 6.7305 2.1328 8.082 5.4023 1.3555 3.2695 0.60938 7.0312-1.8945 9.5352s-6.2656 3.25-9.5352 1.8945c-3.2695-1.3516-5.4023-4.543-5.4023-8.082 0-4.832 3.918-8.75 8.75-8.75z"/>
 </g>
</svg>
