<?xml version="1.0" encoding="UTF-8"?>
<svg width="700pt" height="700pt" version="1.1" viewBox="0 0 700 700" xmlns="http://www.w3.org/2000/svg" xmlns:xlink="http://www.w3.org/1999/xlink">
 <g>
  <path d="m350 173.06c32.879 0 62.332 14.926 81.965 38.34l14.371-10.172c-22.824-27.871-57.5-45.668-96.336-45.668-68.727 0-124.45 55.711-124.45 124.44s55.719 124.45 124.45 124.45c58.977 0 108.34-41.039 121.17-96.109-8.4141 5.9609-16.625 11.777-24.488 17.344-17.164 36.18-54.039 61.266-96.68 61.266-58.969 0-106.95-47.977-106.95-106.95 0-58.965 47.977-106.94 106.95-106.94z"/>
  <path d="m602.34 233.33h-25.297c-7.7422 5.4844-16.039 11.363-24.699 17.5h49.996c5.5039 0 10.156 6.2461 10.156 13.637v31.09c0 7.3789-4.6523 13.617-10.156 13.617h-53.715l-3.0039 13.773c-5.0273 23.066-14.105 44.941-26.969 65.016l-7.5977 11.859 9.957 9.9609 28.055 28.055c2.0977 2.0898 2.4023 4.875 2.2812 6.8438-0.20312 3.5195-1.9375 7.1484-4.7422 9.957l-21.969 21.98c-3.0391 3.0273-6.9258 4.7656-10.668 4.7656-1.75 0-4.2383-0.39844-6.1523-2.3203l-28.055-28.043-9.957-9.9531-11.855 7.5977c-20.059 12.855-41.93 21.93-65.012 26.965l-13.77 3.0039v53.727c0 5.4922-6.2383 10.141-13.625 10.141h-31.094c-7.3867 0-13.621-4.6484-13.621-10.148v-53.727l-13.77-3.0039c-23.082-5.0391-44.957-14.109-65.012-26.965l-11.859-7.6016-9.957 9.9609-28.062 28.059c-1.9023 1.9023-4.3867 2.3008-6.1406 2.3008-3.7422 0-7.6328-1.7383-10.656-4.7539l-21.98-21.988c-2.8125-2.8125-4.543-6.4414-4.75-9.957-0.11719-1.9688 0.18359-4.75 2.2969-6.8555l28.043-28.043 9.957-9.9609-7.5938-11.859c-12.863-20.07-21.934-41.945-26.969-65.02l-3.0039-13.77h-14.094l-39.625 0.003906c-5.5039 0-10.156-6.2383-10.156-13.617v-31.09c0-7.3906 4.6523-13.633 10.156-13.633h53.719l3.0039-13.77c5.0312-23.074 14.105-44.949 26.965-65.008l7.6016-11.859-9.9609-9.957-28.059-28.062c-1.9023-1.8984-2.3008-4.3789-2.3047-6.1289-0.003906-3.7422 1.7344-7.625 4.7617-10.656l21.98-21.988c3.0391-3.0352 6.9258-4.7734 10.668-4.7734 1.75 0 4.2344 0.39844 6.1484 2.3164l28.047 28.043 9.9648 9.957 11.859-7.6016c20.051-12.855 41.922-21.922 65.004-26.949l13.777-3v-53.746c0-5.5 6.2383-10.148 13.621-10.148h31.094c7.3867 0 13.625 4.6484 13.625 10.148v53.746l13.773 3c23.078 5.0273 44.949 14.094 65.004 26.949l11.855 7.5977 9.957-9.9531 28.07-28.059c1.8984-1.9023 4.3789-2.3008 6.125-2.3008 3.7422 0 7.6289 1.7422 10.66 4.7656l21.988 22c2.8047 2.8047 4.5352 6.4297 4.7383 9.9414 0.12109 1.9688-0.18359 4.7539-2.2891 6.8555l-21.703 21.707 41.469-29.348c-0.38281-7.5977-3.6953-15.387-9.8398-21.527l-21.984-21.996c-6.5547-6.5508-14.977-9.8945-23.039-9.8945-6.8984 0-13.539 2.4531-18.516 7.4414l-28.055 28.043c-21.328-13.672-45.172-23.75-70.723-29.312v-39.648c0.007813-15.277-13.926-27.656-31.117-27.656h-31.094c-17.195 0-31.121 12.379-31.121 27.648v39.648c-25.551 5.5664-49.398 15.641-70.727 29.312l-28.047-28.043c-4.9805-4.9922-11.617-7.4414-18.52-7.4414-8.0625 0-16.48 3.3438-23.035 9.8945l-21.992 22c-12.152 12.152-13.258 30.754-2.4414 41.547l28.043 28.043c-13.672 21.328-23.758 45.172-29.332 70.723l-39.625-0.003906c-15.277 0-27.656 13.934-27.656 31.137v31.09c0 17.188 12.379 31.117 27.656 31.117h39.625c5.5742 25.551 15.66 49.395 29.332 70.73l-28.043 28.043c-10.816 10.793-9.7109 29.387 2.4414 41.555l21.988 21.996c6.5547 6.543 14.973 9.8789 23.031 9.8789 6.9023 0 13.547-2.4492 18.527-7.4414l28.047-28.043c21.328 13.672 45.176 23.754 70.727 29.332v39.633c0 15.273 13.93 27.648 31.121 27.648h31.094c17.191 0 31.125-12.379 31.125-27.648v-39.633c25.551-5.5742 49.395-15.66 70.723-29.332l28.055 28.043c4.9766 4.9922 11.621 7.4414 18.527 7.4414 8.0586 0 16.473-3.3398 23.027-9.8789l21.984-21.996c12.152-12.168 13.262-30.762 2.4492-41.555l-28.043-28.043c13.672-21.336 23.758-45.18 29.332-70.73h39.621c15.277 0 27.656-13.93 27.656-31.117l-0.003906-31.09c0-17.203-12.379-31.137-27.656-31.137z"/>
  <path d="m373.47 274.02c-0.35938-0.51172-0.71094-1.0352-1.0234-1.5312l-34.266-46.398c-4.4414-6.2812-11.66-10.031-19.309-10.031-5.0117 0-9.8125 1.5742-13.883 4.5469l-15.18 11.098c-10.535 7.6953-12.953 22.652-5.2969 33.473 0.42578 0.58203 42.98 58.465 61.562 84.844 3.8516 5.4648 10.145 8.7266 16.836 8.7266h0.003907c4.3906 0 8.7305-1.4219 12.539-4.1133 47.73-33.719 244.62-173.25 244.73-173.32 10.527-7.6953 12.945-22.656 5.3867-33.348l-10.926-15.434c-4.4336-6.2812-11.652-10.031-19.297-10.031-5.0117 0-9.8086 1.5703-13.781 4.4688l-202.68 143.44c-1.707 1.3086-3.7461 2.6562-5.4141 3.6172zm218.3-132.84c2.7148-1.9805 6.6484-1.2891 8.582 1.457l10.93 15.434c2.0742 2.9336 1.4297 7.0234-1.3242 9.0391 0 0-196.88 139.52-244.6 173.23-0.85547 0.60156-1.6758 0.90625-2.4453 0.90625-1.1914 0-2.1094-0.70312-2.5352-1.3047-18.688-26.523-61.344-84.551-61.676-85-2.0742-2.9297-1.4336-7.0156 1.4297-9.1094l15.18-11.102c1.0508-0.76953 2.2812-1.1758 3.5547-1.1758 2.0078 0 3.8359 0.96094 5.1289 2.7852l33.84 45.785c1.5234 2.3828 4.3281 6.3945 7.1211 8.5078 1.8516 1.3867 4.1172 2.1211 6.5664 2.1211 5.7852 0 12.992-4.6094 17.738-8.2656z"/>
 </g>
</svg>
