<?xml version="1.0" standalone="no"?>
<!DOCTYPE svg PUBLIC "-//W3C//DTD SVG 20010904//EN"
 "http://www.w3.org/TR/2001/REC-SVG-20010904/DTD/svg10.dtd">
<svg version="1.0" xmlns="http://www.w3.org/2000/svg"
 width="2135.000000pt" height="2042.000000pt" viewBox="0 0 2135.000000 2042.000000"
 preserveAspectRatio="xMidYMid meet">
<metadata>
Created by potrace 1.10, written by Peter Selinger 2001-2011
</metadata>
<g transform="translate(0.000000,2042.000000) scale(0.100000,-0.100000)"
fill="#000000" stroke="none">
<path d="M1797 19645 l-417 -240 -2 -484 -3 -484 -418 -241 -417 -241 2 -483
3 -484 385 -222 c212 -122 399 -230 416 -240 l30 -18 409 236 c225 129 414
237 420 239 5 3 8 6 5 9 -8 8 -827 478 -832 478 -3 0 -184 -103 -403 -230
-220 -126 -402 -230 -405 -230 -3 0 -4 206 -2 457 l2 458 29 25 c16 14 51 36
78 50 26 14 49 28 51 33 2 4 7 7 12 7 8 0 127 67 285 160 50 29 104 61 120 70
17 8 62 35 102 58 39 23 76 42 82 42 19 0 22 -65 19 -457 -2 -216 -1 -400 2
-409 21 -57 25 18 30 460 l5 479 415 239 415 239 30 -17 c16 -10 203 -118 415
-240 l385 -222 3 -485 2 -484 -415 -239 c-228 -132 -415 -241 -414 -244 0 -3
186 -112 414 -243 l415 -239 420 243 420 242 0 481 0 481 -418 240 -417 241
-3 484 -3 485 -227 130 c-124 72 -312 180 -417 240 l-191 111 -417 -241z m546
131 c43 -25 83 -46 88 -46 5 0 9 -4 9 -10 0 -5 5 -10 11 -10 6 0 75 -38 153
-84 77 -46 168 -99 201 -117 33 -18 94 -53 135 -79 l75 -46 3 -429 c1 -237 0
-436 -3 -443 -6 -15 -45 6 -385 206 -19 12 -61 35 -94 52 -32 17 -81 45 -110
63 -83 53 -172 97 -195 97 l-21 0 0 458 c0 252 3 462 7 465 3 4 16 -1 27 -12
12 -10 56 -40 99 -65z m-153 -390 l0 -434 -112 -67 c-62 -36 -124 -73 -138
-81 -14 -8 -33 -18 -42 -21 -10 -3 -18 -9 -18 -14 0 -5 -4 -9 -9 -9 -6 0 -60
-29 -121 -65 -61 -36 -113 -65 -116 -65 -3 0 -30 -16 -60 -35 -30 -19 -58 -35
-62 -35 -4 0 -18 -9 -32 -20 -36 -28 -57 -25 -64 8 -3 15 -4 205 -4 422 1 379
5 430 31 430 5 0 28 14 52 30 24 17 46 30 49 30 4 0 135 73 196 110 22 13 120
70 155 90 17 9 70 41 118 69 72 43 162 90 175 91 1 0 2 -195 2 -434z m973
-1055 c29 -16 89 -50 135 -77 46 -27 96 -56 110 -64 15 -8 59 -33 97 -56 39
-23 115 -67 170 -98 130 -74 137 -78 157 -100 16 -17 17 -52 15 -450 -2 -418
-3 -431 -21 -428 -11 2 -74 35 -140 74 -185 108 -308 178 -313 178 -2 0 -27
15 -56 33 -29 18 -87 52 -130 76 -42 23 -82 51 -87 61 -15 27 -14 880 1 880 6
0 34 -13 62 -29z m308 -1099 c189 -109 354 -205 367 -213 26 -16 29 -29 6 -29
-15 0 -47 -16 -182 -94 -35 -20 -66 -36 -68 -36 -2 0 -35 -20 -73 -45 -38 -25
-71 -45 -74 -45 -2 0 -71 -39 -153 -86 -192 -112 -233 -134 -245 -134 -10 0
-229 123 -374 211 -16 10 -57 32 -90 50 -33 17 -66 36 -74 42 -15 13 -47 32
-76 46 -50 23 -140 83 -140 92 0 10 83 61 240 148 28 16 101 58 163 95 62 36
116 66 119 66 4 0 14 6 22 14 9 8 41 28 71 43 92 49 140 82 140 98 0 20 5 18
421 -223z m-1943 112 c57 -32 115 -67 130 -76 15 -9 47 -27 72 -41 57 -30 99
-54 191 -110 41 -24 97 -56 124 -70 54 -29 91 -55 84 -60 -25 -20 -78 -52
-144 -87 -44 -23 -92 -51 -107 -61 -14 -11 -29 -19 -33 -19 -4 0 -19 -8 -33
-18 -15 -11 -52 -32 -82 -49 -30 -17 -117 -67 -194 -112 -76 -44 -145 -81
-153 -81 -14 0 -137 65 -241 127 -20 12 -53 30 -72 39 -19 10 -46 25 -60 35
-23 15 -72 44 -125 73 -142 78 -265 153 -265 163 0 14 36 37 187 122 43 24
149 86 236 137 87 52 160 94 162 94 3 0 33 17 67 38 84 51 88 52 123 33 17
-10 76 -44 133 -77z"/>
<path d="M1660 18136 l0 -316 108 0 c192 1 295 14 332 40 93 66 91 222 -4 276
l-37 21 24 16 c56 37 74 139 34 197 -44 67 -71 75 -274 78 l-183 4 0 -316z
m391 251 c62 -41 66 -128 8 -191 -28 -29 -24 -46 26 -100 40 -43 45 -54 45
-94 0 -52 -29 -103 -70 -123 -30 -15 -337 -26 -350 -13 -12 12 -16 522 -4 533
15 15 41 16 183 10 104 -4 142 -9 162 -22z"/>
<path d="M1770 18360 c-23 -23 -23 -25 -21 -100 3 -83 16 -92 136 -92 112 0
140 13 164 75 17 45 2 84 -44 116 -26 18 -46 21 -123 21 -79 0 -95 -3 -112
-20z m233 -37 c27 -25 22 -78 -9 -102 -23 -18 -41 -21 -120 -21 l-94 0 0 75 0
74 103 -5 c73 -4 107 -10 120 -21z"/>
<path d="M1788 18125 c-39 -22 -45 -41 -42 -120 3 -60 7 -73 29 -92 24 -21 33
-22 125 -18 82 3 105 7 130 25 16 12 30 28 30 36 0 8 5 14 11 14 8 0 10 15 6
46 -6 56 -43 99 -95 109 -85 15 -167 16 -194 0z m181 -34 c53 -11 71 -31 71
-82 0 -29 -6 -42 -26 -58 -23 -18 -41 -21 -130 -21 l-104 0 0 85 0 85 73 0
c39 -1 92 -5 116 -9z"/>
<path d="M2280 18135 l0 -315 60 0 60 0 0 97 0 97 52 53 51 52 85 -150 85
-149 78 0 c44 0 79 2 79 4 0 3 -54 89 -120 192 l-121 187 28 31 c15 17 68 73
118 124 l90 92 -86 0 -86 0 -124 -138 -124 -139 -3 139 -3 138 -59 0 -60 0 0
-315z m77 263 c5 -7 10 -58 11 -113 2 -88 5 -102 23 -117 27 -23 40 -15 108
59 135 147 174 183 197 183 13 0 24 -3 24 -7 0 -5 -36 -46 -80 -91 -45 -47
-80 -92 -80 -103 0 -25 24 -72 66 -130 19 -26 34 -49 34 -51 0 -3 20 -36 45
-74 53 -80 56 -96 18 -89 -35 6 -47 20 -117 144 -54 95 -85 131 -113 131 -16
0 -97 -78 -113 -110 -7 -13 -13 -50 -12 -81 1 -65 -18 -103 -40 -81 -10 10
-13 70 -13 265 -1 231 4 277 25 277 4 0 12 -6 17 -12z"/>
<path d="M1610 17691 c0 -21 3 -23 35 -17 l35 7 0 -101 0 -100 25 0 25 0 0
100 0 101 35 -7 c32 -6 35 -4 35 17 0 24 -2 24 -95 24 -93 0 -95 0 -95 -24z"/>
<path d="M1830 17598 l0 -118 25 0 c23 0 25 4 25 45 l0 45 45 0 c56 0 85 25
85 73 0 50 -23 64 -107 69 l-73 4 0 -118z m105 72 c20 -7 26 -16 23 -33 -2
-18 -10 -23 -40 -25 -37 -3 -38 -3 -38 32 0 39 9 43 55 26z"/>
<path d="M2100 17600 l0 -120 25 0 c23 0 25 3 25 50 l0 50 48 0 47 0 -3 -50
c-4 -48 -3 -50 22 -50 l26 0 0 120 0 120 -26 0 c-26 0 -26 -1 -22 -50 l5 -50
-48 0 -49 0 0 50 c0 47 -2 50 -25 50 l-25 0 0 -120z"/>
<path d="M2383 17701 c-53 -33 -66 -126 -26 -188 36 -55 139 -50 169 8 14 28
14 30 -8 38 -18 7 -25 4 -30 -10 -12 -31 -46 -43 -74 -25 -28 19 -39 53 -30
101 11 55 59 72 95 33 16 -17 25 -19 42 -12 l22 10 -24 28 c-32 37 -92 45
-136 17z"/>
<path d="M2580 17598 c0 -116 0 -118 23 -118 21 0 22 4 19 58 -2 32 -2 73 0
92 3 33 4 32 17 -20 32 -134 30 -130 56 -130 21 0 25 7 41 78 25 116 36 122
30 15 l-6 -93 25 0 25 0 0 119 0 120 -37 -3 c-37 -2 -37 -2 -53 -66 -28 -110
-24 -112 -60 28 -9 35 -13 38 -45 38 l-35 0 0 -118z"/>
<path d="M2010 17504 c0 -19 5 -24 25 -24 18 0 25 5 25 19 0 12 -9 20 -25 23
-21 4 -25 1 -25 -18z"/>
</g>
</svg>
